<svg id="Layer_1" data-name="Layer 1" xmlns="http://www.w3.org/2000/svg" viewBox="0 0 300 66"><defs><style>.cls-1{fill:#f08f02;}</style></defs><path class="cls-1" d="M27.74,7c4.84,0,8.46,1.14,10.83,3.41S42.13,16,42.13,20.47a11.27,11.27,0,0,1-1.74,6.25,11.35,11.35,0,0,1-5.16,4.17,21.19,21.19,0,0,1-8.41,1.47L27.13,29a26.27,26.27,0,0,1,5.38.65,20.33,20.33,0,0,1,5.87,2.27,12.91,12.91,0,0,1,6.55,12,18,18,0,0,1-1.62,8.18A12.64,12.64,0,0,1,39,57a16.42,16.42,0,0,1-5.69,2.38,28,28,0,0,1-5.83.65H8.64A4.54,4.54,0,0,1,4,55.4V11.6A4.54,4.54,0,0,1,8.64,7Zm-1.37,8.94H12.88l1-1.21V28.42L13,27.74H26.6a6,6,0,0,0,3.94-1.44,5.1,5.1,0,0,0,1.74-4.17q0-3.25-1.63-4.73A6.14,6.14,0,0,0,26.37,15.92ZM27,36.68H13.18l.69-.6v16l-.76-.75h14.4A7.91,7.91,0,0,0,33,49.45a7.17,7.17,0,0,0,2.05-5.57q0-3.41-1.37-4.92a5.82,5.82,0,0,0-3.26-1.9A18,18,0,0,0,27,36.68Z"/><path class="cls-1" d="M57.44,60a4.34,4.34,0,0,1-3.26-1.33,4.53,4.53,0,0,1-1.29-3.29V24.1a4.53,4.53,0,0,1,1.29-3.29,4.66,4.66,0,0,1,6.52,0A4.52,4.52,0,0,1,62,24.1v7.13l-.53-5.08a12,12,0,0,1,2.16-3.22,13.09,13.09,0,0,1,3-2.35,13.54,13.54,0,0,1,3.56-1.4A16.3,16.3,0,0,1,74,18.72,5.75,5.75,0,0,1,77.78,20a3.84,3.84,0,0,1,1.56,3,4.48,4.48,0,0,1-1.29,3.6,4.21,4.21,0,0,1-2.8,1.1,6.39,6.39,0,0,1-2.62-.53,6.65,6.65,0,0,0-5.45.11,7.55,7.55,0,0,0-2.58,2,10.61,10.61,0,0,0-1.89,3.37A13.81,13.81,0,0,0,62,37.44v18a4.52,4.52,0,0,1-1.28,3.29A4.34,4.34,0,0,1,57.44,60Z"/><path class="cls-1" d="M123.05,39.79a21.36,21.36,0,0,1-2.76,11,19.88,19.88,0,0,1-7.43,7.39,21.79,21.79,0,0,1-20.83,0,19.88,19.88,0,0,1-7.43-7.39,21.27,21.27,0,0,1-2.77-11A21.27,21.27,0,0,1,84.6,28.84,20.11,20.11,0,0,1,92,21.42a21.44,21.44,0,0,1,20.83,0,20.11,20.11,0,0,1,7.43,7.42A21.36,21.36,0,0,1,123.05,39.79Zm-9.09,0a13.75,13.75,0,0,0-1.56-6.71,11.54,11.54,0,0,0-4.16-4.43,11.37,11.37,0,0,0-11.6,0,11.61,11.61,0,0,0-4.16,4.43,13.86,13.86,0,0,0-1.55,6.71,13.67,13.67,0,0,0,1.55,6.63,11.61,11.61,0,0,0,4.16,4.43,11.37,11.37,0,0,0,11.6,0,11.54,11.54,0,0,0,4.16-4.43A13.56,13.56,0,0,0,114,39.79Z"/><path class="cls-1" d="M169.58,39.79a21.37,21.37,0,0,1-2.77,11,19.81,19.81,0,0,1-7.43,7.39,21.79,21.79,0,0,1-20.83,0,19.79,19.79,0,0,1-7.42-7.39,21.27,21.27,0,0,1-2.77-11,21.27,21.27,0,0,1,2.77-10.95,20,20,0,0,1,7.42-7.42,21.44,21.44,0,0,1,20.83,0,20,20,0,0,1,7.43,7.42A21.37,21.37,0,0,1,169.58,39.79Zm-9.1,0a13.86,13.86,0,0,0-1.55-6.71,11.56,11.56,0,0,0-4.17-4.43,11.36,11.36,0,0,0-11.59,0A11.54,11.54,0,0,0,139,33.08a13.75,13.75,0,0,0-1.56,6.71A13.56,13.56,0,0,0,139,46.42a11.54,11.54,0,0,0,4.16,4.43,11.36,11.36,0,0,0,11.59,0,11.56,11.56,0,0,0,4.17-4.43A13.67,13.67,0,0,0,160.48,39.79Z"/><path class="cls-1" d="M185.71,55.4a4.52,4.52,0,0,1-1.28,3.29,4.66,4.66,0,0,1-6.52,0,4.52,4.52,0,0,1-1.28-3.29V24.1a4.52,4.52,0,0,1,1.28-3.29,4.66,4.66,0,0,1,6.52,0,4.52,4.52,0,0,1,1.28,3.29Z"/><path class="cls-1" d="M236,7A3.84,3.84,0,0,1,239,8.19a4.26,4.26,0,0,1,1.14,3V55.4A4.54,4.54,0,0,1,235.5,60a6.24,6.24,0,0,1-2-.34,3.42,3.42,0,0,1-1.55-1L202.16,20.92l2-1.21V55.78a4.2,4.2,0,0,1-1.17,3A4.1,4.1,0,0,1,199.88,60a3.87,3.87,0,0,1-2.95-1.21,4.25,4.25,0,0,1-1.13-3V11.6A4.53,4.53,0,0,1,200.41,7a6.39,6.39,0,0,1,2.21.42,3.17,3.17,0,0,1,1.66,1.25l28.87,36.82-1.29.91V11.22a4.26,4.26,0,0,1,1.14-3A4,4,0,0,1,236,7Z"/><path class="cls-1" d="M276.49,60.78a27.32,27.32,0,0,1-10.76-2.12A27.84,27.84,0,0,1,251,44.11a26.14,26.14,0,0,1-2.16-10.61A26.14,26.14,0,0,1,251,22.89,27.84,27.84,0,0,1,265.73,8.34a27.32,27.32,0,0,1,10.76-2.12,31.36,31.36,0,0,1,6.89.76,24.3,24.3,0,0,1,6.14,2.27,4.18,4.18,0,0,1,1.7,1.63,4.27,4.27,0,0,1,.57,2.09,4.93,4.93,0,0,1-1.21,3.25,3.89,3.89,0,0,1-3.11,1.44,5.53,5.53,0,0,1-1.25-.15,5.66,5.66,0,0,1-1.25-.45,20.21,20.21,0,0,0-4-1.29,21.57,21.57,0,0,0-4.47-.46,17,17,0,0,0-9,2.47,18.24,18.24,0,0,0-6.44,6.59,17.83,17.83,0,0,0-2.39,9.13,17.85,17.85,0,0,0,2.39,9.09,18.12,18.12,0,0,0,6.44,6.63,16.87,16.87,0,0,0,9,2.47,31.06,31.06,0,0,0,5-.46A19.6,19.6,0,0,0,286,50l-.69,2.27v-13l1.29,1.14h-8.41a4.56,4.56,0,0,1-3.3-1.29,4.67,4.67,0,0,1,0-6.51,4.56,4.56,0,0,1,3.3-1.29h12.43a4.37,4.37,0,0,1,3.26,1.32,4.56,4.56,0,0,1,1.28,3.3V52.06a4.16,4.16,0,0,1-.71,2.51,7,7,0,0,1-1.63,1.59,33.6,33.6,0,0,1-7.62,3.37A29.9,29.9,0,0,1,276.49,60.78Z"/><rect class="cls-1" x="129.42" y="-40.56" width="9" height="104" rx="4.5" transform="translate(145.36 -122.48) rotate(90)"/></svg>